<?xml version="1.0" standalone="no"?>
<svg xmlns:xlink="http://www.w3.org/1999/xlink" id="wave" style="transform:rotate(0deg); transition: 0.3s" viewBox="0 0 1440 360" version="1.1" xmlns="http://www.w3.org/2000/svg"><defs><linearGradient id="sw-gradient-0" x1="0" x2="0" y1="1" y2="0"><stop stop-color="rgba(95.825, 238.823, 255, 1)" offset="0%"/><stop stop-color="rgba(255, 255, 255, 1)" offset="100%"/></linearGradient></defs><path style="transform:translate(0, 0px); opacity:1" fill="url(#sw-gradient-0)" d="M0,324L60,312C120,300,240,276,360,240C480,204,600,156,720,126C840,96,960,84,1080,102C1200,120,1320,168,1440,198C1560,228,1680,240,1800,228C1920,216,2040,180,2160,192C2280,204,2400,264,2520,258C2640,252,2760,180,2880,162C3000,144,3120,180,3240,210C3360,240,3480,264,3600,240C3720,216,3840,144,3960,96C4080,48,4200,24,4320,24C4440,24,4560,48,4680,60C4800,72,4920,72,5040,108C5160,144,5280,216,5400,222C5520,228,5640,168,5760,138C5880,108,6000,108,6120,102C6240,96,6360,84,6480,120C6600,156,6720,240,6840,258C6960,276,7080,228,7200,198C7320,168,7440,156,7560,156C7680,156,7800,168,7920,162C8040,156,8160,132,8280,144C8400,156,8520,204,8580,228L8640,252L8640,360L8580,360C8520,360,8400,360,8280,360C8160,360,8040,360,7920,360C7800,360,7680,360,7560,360C7440,360,7320,360,7200,360C7080,360,6960,360,6840,360C6720,360,6600,360,6480,360C6360,360,6240,360,6120,360C6000,360,5880,360,5760,360C5640,360,5520,360,5400,360C5280,360,5160,360,5040,360C4920,360,4800,360,4680,360C4560,360,4440,360,4320,360C4200,360,4080,360,3960,360C3840,360,3720,360,3600,360C3480,360,3360,360,3240,360C3120,360,3000,360,2880,360C2760,360,2640,360,2520,360C2400,360,2280,360,2160,360C2040,360,1920,360,1800,360C1680,360,1560,360,1440,360C1320,360,1200,360,1080,360C960,360,840,360,720,360C600,360,480,360,360,360C240,360,120,360,60,360L0,360Z"/><defs><linearGradient id="sw-gradient-1" x1="0" x2="0" y1="1" y2="0"><stop stop-color="rgba(116.592, 201.607, 228.034, 1)" offset="0%"/><stop stop-color="rgba(255, 255, 255, 1)" offset="100%"/></linearGradient></defs><path style="transform:translate(0, 50px); opacity:0.9" fill="url(#sw-gradient-1)" d="M0,216L60,180C120,144,240,72,360,90C480,108,600,216,720,258C840,300,960,276,1080,228C1200,180,1320,108,1440,120C1560,132,1680,228,1800,264C1920,300,2040,276,2160,222C2280,168,2400,84,2520,54C2640,24,2760,48,2880,54C3000,60,3120,48,3240,48C3360,48,3480,60,3600,72C3720,84,3840,96,3960,84C4080,72,4200,36,4320,24C4440,12,4560,24,4680,60C4800,96,4920,156,5040,168C5160,180,5280,144,5400,150C5520,156,5640,204,5760,198C5880,192,6000,132,6120,102C6240,72,6360,72,6480,78C6600,84,6720,96,6840,96C6960,96,7080,84,7200,78C7320,72,7440,72,7560,96C7680,120,7800,168,7920,204C8040,240,8160,264,8280,270C8400,276,8520,264,8580,258L8640,252L8640,360L8580,360C8520,360,8400,360,8280,360C8160,360,8040,360,7920,360C7800,360,7680,360,7560,360C7440,360,7320,360,7200,360C7080,360,6960,360,6840,360C6720,360,6600,360,6480,360C6360,360,6240,360,6120,360C6000,360,5880,360,5760,360C5640,360,5520,360,5400,360C5280,360,5160,360,5040,360C4920,360,4800,360,4680,360C4560,360,4440,360,4320,360C4200,360,4080,360,3960,360C3840,360,3720,360,3600,360C3480,360,3360,360,3240,360C3120,360,3000,360,2880,360C2760,360,2640,360,2520,360C2400,360,2280,360,2160,360C2040,360,1920,360,1800,360C1680,360,1560,360,1440,360C1320,360,1200,360,1080,360C960,360,840,360,720,360C600,360,480,360,360,360C240,360,120,360,60,360L0,360Z"/></svg>