<?xml version="1.0" standalone="no"?><svg xmlns="http://www.w3.org/2000/svg" viewBox="0 0 1440 320"><path fill="#ffff" fill-opacity="1" d="M0,256L24,250.7C48,245,96,235,144,192C192,149,240,75,288,85.3C336,96,384,192,432,208C480,224,528,160,576,122.7C624,85,672,75,720,64C768,53,816,43,864,69.3C912,96,960,160,1008,192C1056,224,1104,224,1152,234.7C1200,245,1248,267,1296,272C1344,277,1392,267,1416,261.3L1440,256L1440,320L1416,320C1392,320,1344,320,1296,320C1248,320,1200,320,1152,320C1104,320,1056,320,1008,320C960,320,912,320,864,320C816,320,768,320,720,320C672,320,624,320,576,320C528,320,480,320,432,320C384,320,336,320,288,320C240,320,192,320,144,320C96,320,48,320,24,320L0,320Z"></path></svg>